<?xml version="1.0" standalone="no"?>
<!DOCTYPE svg PUBLIC "-//W3C//DTD SVG 20010904//EN"
 "http://www.w3.org/TR/2001/REC-SVG-20010904/DTD/svg10.dtd">
<svg version="1.0" xmlns="http://www.w3.org/2000/svg"
 width="400.000000pt" height="400.000000pt" viewBox="0 0 400.000000 400.000000"
 preserveAspectRatio="xMidYMid meet">
<metadata>
Created by potrace 1.14, written by Peter Selinger 2001-2017
</metadata>
<g transform="translate(0.000000,400.000000) scale(0.100000,-0.100000)"
fill="#000000" stroke="none">
<path d="M713 3937 c-257 -174 -437 -353 -632 -626 l-81 -114 0 -1131 0 -1131
26 -40 c150 -225 315 -412 474 -537 41 -33 82 -65 90 -71 67 -53 249 -162 382
-228 l117 -59 871 0 871 0 112 56 c249 124 428 254 619 446 156 158 315 372
398 538 l40 80 0 946 0 947 -41 81 c-156 307 -439 619 -762 838 l-101 68
-1145 -1 -1146 0 -92 -62z"/>
</g>
</svg>
